<svg width="46" height="40" viewBox="0 0 46 40" fill="none" xmlns="http://www.w3.org/2000/svg">
<path d="M23.65 36.182C23.5485 35.8669 23.4009 35.5703 23.2072 35.3109C22.6723 34.5788 21.8052 34.1154 20.8552 34.1154C20.763 34.1154 20.6707 34.1154 20.5785 34.1247C20.3387 34.1525 20.1081 34.2081 19.8867 34.2822C19.5731 34.3934 19.2872 34.551 19.0289 34.7548C18.8168 34.9217 18.6323 35.1255 18.4755 35.3479C18.0789 35.904 17.876 36.599 17.9405 37.3311C18.0881 38.8509 19.361 40 20.8552 40C20.9474 40 21.0397 40 21.1319 39.9907C22.6723 39.8425 23.816 38.5265 23.7791 36.9975C23.7791 36.9233 23.7791 36.8585 23.7699 36.7843C23.7514 36.5712 23.7053 36.3766 23.65 36.182Z" fill="#4F46E5"/>
<path d="M39.2114 33.1982C38.9993 33.0221 38.7503 32.8738 38.492 32.7626C38.1692 32.6236 37.8187 32.5495 37.4589 32.5402C37.4221 32.5402 37.3944 32.5309 37.3575 32.5309C37.2653 32.5309 37.173 32.5309 37.0808 32.5402C36.1031 32.6329 35.2822 33.2074 34.821 34.0044C34.6457 34.3102 34.5258 34.6531 34.4705 35.0145C34.4336 35.2555 34.4244 35.5057 34.4428 35.7559C34.4428 35.7837 34.452 35.8207 34.452 35.8486C34.6365 37.322 35.8909 38.4155 37.3483 38.4155C37.4405 38.4155 37.5327 38.4155 37.625 38.4063C39.2391 38.2487 40.4197 36.8123 40.2629 35.1999C40.1984 34.3844 39.7925 33.6801 39.2114 33.1982Z" fill="#4F46E5"/>
<path d="M18.2732 19.1954C18.1717 19.1954 18.061 19.2139 17.9596 19.2417L11.0418 21.3917C10.1379 21.6697 10.0365 22.9115 10.8758 23.3378L13.5322 24.6908C13.7628 24.8112 13.9381 25.0058 14.0395 25.2468L14.9158 27.5172C15.091 27.962 15.4876 28.1844 15.8935 28.1844C16.3085 28.1844 16.7236 27.9435 16.8804 27.4802L19.2601 20.604C19.4999 19.8812 18.9557 19.1954 18.2732 19.1954Z" fill="#FBBF24"/>
<path d="M37.6419 23.6809C37.3099 21.1047 34.9671 19.2791 32.4029 19.6127L23.8526 20.7155L22.2661 4.25718C22.0171 1.67167 19.7296 -0.228074 17.1562 0.0221369C14.5828 0.272347 12.7012 2.57058 12.941 5.15609L14.2139 18.4265C14.2508 18.7694 14.2969 19.103 14.3522 19.4366L17.6912 18.3987C17.8757 18.3431 18.0694 18.3153 18.263 18.3153C18.881 18.3153 19.4621 18.6211 19.8311 19.1308C20.1908 19.6498 20.283 20.2799 20.0801 20.8823L18.2815 26.0718L18.7242 26.4518C19.8403 27.4156 21.0855 28.1662 22.4414 28.6944C23.9079 29.269 25.4483 29.5562 27.0163 29.5562C27.4221 29.5562 27.828 29.5377 28.2338 29.5006C30.3552 29.2968 32.4029 28.5554 34.1554 27.36C35.5666 26.3962 36.7472 25.1915 37.6511 23.8107C37.6511 23.7736 37.6419 23.7273 37.6419 23.6809Z" fill="#FBBF24"/>
<path d="M45.7965 14.9697L45.529 12.1896C45.4184 10.9848 44.4038 10.0859 43.2324 10.0859C43.1586 10.0859 43.0848 10.0859 43.011 10.0952C41.7381 10.2157 40.8065 11.3463 40.9264 12.6251L41.1939 15.4052C41.2308 15.8037 41.2493 16.2022 41.2493 16.5914C41.3138 21.5122 38.8511 25.9697 34.9956 28.6015C33.0863 29.9082 30.8358 30.7607 28.3823 30.9924C27.9211 31.0387 27.4692 31.0573 27.0264 31.0573C25.237 31.0573 23.503 30.7144 21.9073 30.0935C20.3854 29.5004 18.9926 28.6479 17.7659 27.5914L17.7105 27.7582C17.4338 28.5459 16.7236 29.0556 15.8935 29.0556C15.091 29.0556 14.39 28.5737 14.1041 27.8231L13.2279 25.5527C13.2094 25.5156 13.1817 25.4785 13.1448 25.46L10.4884 24.107C9.78744 23.7456 9.37238 23.0042 9.43694 22.2165C9.50151 21.4288 10.0365 20.7709 10.7836 20.5299L13.1356 19.7978C13.1356 19.7885 13.1356 19.7793 13.1356 19.7793C13.0157 19.2325 12.8774 18.0927 12.8774 18.0927L12.3701 12.7178C12.121 10.1137 9.93502 8.15839 7.38007 8.15839C7.22327 8.15839 7.05725 8.16765 6.90044 8.17692L2.11338 8.63101C0.822067 8.78855 -0.10952 9.91913 0.0103872 11.198C0.121071 12.4027 1.13567 13.3016 2.30707 13.3016C2.38086 13.3016 2.45465 13.3016 2.52844 13.2923L7.31551 12.829C7.32473 12.829 7.34318 12.829 7.3524 12.829C7.55532 12.829 7.72135 12.9865 7.7398 13.1904L8.2471 18.5653C8.33933 19.5569 8.51458 20.5299 8.7544 21.4751C8.7544 21.4751 9.068 22.6706 9.40005 23.5139C9.78744 24.4869 10.5253 25.9511 10.5253 25.9511C12.2963 29.1575 14.9619 31.7708 18.1533 33.476C18.8082 32.9848 19.5829 32.6698 20.4131 32.5863C20.5514 32.5771 20.699 32.5678 20.8374 32.5678C22.7928 32.5678 24.4623 33.8189 25.0618 35.6074C25.6982 35.6723 26.3439 35.7093 26.9988 35.7093C27.5983 35.7093 28.1978 35.6815 28.7974 35.6259C30.2362 35.4869 31.6106 35.1904 32.9296 34.7456C33.0587 33.9671 33.3815 33.235 33.8888 32.6141C34.6451 31.6874 35.7243 31.1129 36.9142 31.0017C37.0525 30.9924 37.2001 30.9831 37.3384 30.9831C37.9472 30.9831 38.5191 31.1036 39.054 31.326C43.7028 27.4524 46.4145 21.4288 45.7965 14.9697Z" fill="#4F46E5"/>
</svg>
