<svg width="136" height="40" viewBox="0 0 136 40" fill="none" xmlns="http://www.w3.org/2000/svg">
<path d="M23.65 36.182C23.5485 35.8669 23.4009 35.5703 23.2072 35.3109C22.6723 34.5788 21.8052 34.1154 20.8552 34.1154C20.763 34.1154 20.6707 34.1154 20.5785 34.1247C20.3387 34.1525 20.1081 34.2081 19.8867 34.2822C19.5731 34.3934 19.2872 34.551 19.0289 34.7548C18.8168 34.9217 18.6323 35.1255 18.4755 35.3479C18.0789 35.904 17.876 36.599 17.9405 37.3311C18.0881 38.8509 19.361 40 20.8552 40C20.9474 40 21.0397 40 21.1319 39.9907C22.6723 39.8425 23.816 38.5265 23.7791 36.9975C23.7791 36.9233 23.7791 36.8585 23.7699 36.7843C23.7514 36.5712 23.7053 36.3766 23.65 36.182Z" fill="#4F46E5"/>
<path d="M39.2114 33.1982C38.9993 33.0221 38.7503 32.8738 38.492 32.7626C38.1692 32.6236 37.8187 32.5495 37.4589 32.5402C37.4221 32.5402 37.3944 32.5309 37.3575 32.5309C37.2653 32.5309 37.173 32.5309 37.0808 32.5402C36.1031 32.6329 35.2822 33.2074 34.821 34.0044C34.6457 34.3102 34.5258 34.6531 34.4705 35.0145C34.4336 35.2555 34.4244 35.5057 34.4428 35.7559C34.4428 35.7837 34.452 35.8207 34.452 35.8486C34.6365 37.322 35.8909 38.4155 37.3483 38.4155C37.4405 38.4155 37.5327 38.4155 37.625 38.4063C39.2391 38.2487 40.4197 36.8123 40.2629 35.1999C40.1984 34.3844 39.7925 33.6801 39.2114 33.1982Z" fill="#4F46E5"/>
<path d="M18.2732 19.1954C18.1717 19.1954 18.061 19.2139 17.9596 19.2417L11.0418 21.3917C10.1379 21.6697 10.0365 22.9115 10.8758 23.3378L13.5322 24.6908C13.7628 24.8112 13.9381 25.0058 14.0395 25.2468L14.9158 27.5172C15.091 27.962 15.4876 28.1844 15.8935 28.1844C16.3085 28.1844 16.7236 27.9435 16.8804 27.4802L19.2601 20.604C19.4999 19.8812 18.9557 19.1954 18.2732 19.1954Z" fill="#FBBF24"/>
<path d="M37.6419 23.6809C37.3099 21.1047 34.9671 19.2791 32.4029 19.6127L23.8526 20.7155L22.2661 4.25718C22.0171 1.67167 19.7296 -0.228074 17.1562 0.0221369C14.5828 0.272347 12.7012 2.57058 12.941 5.15609L14.2139 18.4265C14.2508 18.7694 14.2969 19.103 14.3522 19.4366L17.6912 18.3987C17.8757 18.3431 18.0694 18.3153 18.263 18.3153C18.881 18.3153 19.4621 18.6211 19.8311 19.1308C20.1908 19.6498 20.283 20.2799 20.0801 20.8823L18.2815 26.0718L18.7242 26.4518C19.8403 27.4156 21.0855 28.1662 22.4414 28.6944C23.9079 29.269 25.4483 29.5562 27.0163 29.5562C27.4221 29.5562 27.828 29.5377 28.2338 29.5006C30.3552 29.2968 32.4029 28.5554 34.1554 27.36C35.5666 26.3962 36.7472 25.1915 37.6511 23.8107C37.6511 23.7736 37.6419 23.7273 37.6419 23.6809Z" fill="#FBBF24"/>
<path d="M45.7965 14.9697L45.529 12.1896C45.4184 10.9848 44.4038 10.0859 43.2324 10.0859C43.1586 10.0859 43.0848 10.0859 43.011 10.0952C41.7381 10.2157 40.8065 11.3463 40.9264 12.6251L41.1939 15.4052C41.2308 15.8037 41.2493 16.2022 41.2493 16.5914C41.3138 21.5122 38.8511 25.9697 34.9956 28.6015C33.0863 29.9082 30.8358 30.7607 28.3823 30.9924C27.9211 31.0387 27.4692 31.0573 27.0264 31.0573C25.237 31.0573 23.503 30.7144 21.9073 30.0935C20.3854 29.5004 18.9926 28.6479 17.7659 27.5914L17.7105 27.7582C17.4338 28.5459 16.7236 29.0556 15.8935 29.0556C15.091 29.0556 14.39 28.5737 14.1041 27.8231L13.2279 25.5527C13.2094 25.5156 13.1817 25.4785 13.1448 25.46L10.4884 24.107C9.78744 23.7456 9.37238 23.0042 9.43694 22.2165C9.50151 21.4288 10.0365 20.7709 10.7836 20.5299L13.1356 19.7978C13.1356 19.7885 13.1356 19.7793 13.1356 19.7793C13.0157 19.2325 12.8774 18.0927 12.8774 18.0927L12.3701 12.7178C12.121 10.1137 9.93502 8.15839 7.38007 8.15839C7.22327 8.15839 7.05725 8.16765 6.90044 8.17692L2.11338 8.63101C0.822067 8.78855 -0.10952 9.91913 0.0103872 11.198C0.121071 12.4027 1.13567 13.3016 2.30707 13.3016C2.38086 13.3016 2.45465 13.3016 2.52844 13.2923L7.31551 12.829C7.32473 12.829 7.34318 12.829 7.3524 12.829C7.55532 12.829 7.72135 12.9865 7.7398 13.1904L8.2471 18.5653C8.33933 19.5569 8.51458 20.5299 8.7544 21.4751C8.7544 21.4751 9.068 22.6706 9.40005 23.5139C9.78744 24.4869 10.5253 25.9511 10.5253 25.9511C12.2963 29.1575 14.9619 31.7708 18.1533 33.476C18.8082 32.9848 19.5829 32.6698 20.4131 32.5863C20.5514 32.5771 20.699 32.5678 20.8374 32.5678C22.7928 32.5678 24.4623 33.8189 25.0618 35.6074C25.6982 35.6723 26.3439 35.7093 26.9988 35.7093C27.5983 35.7093 28.1978 35.6815 28.7974 35.6259C30.2362 35.4869 31.6106 35.1904 32.9296 34.7456C33.0587 33.9671 33.3815 33.235 33.8888 32.6141C34.6451 31.6874 35.7243 31.1129 36.9142 31.0017C37.0525 30.9924 37.2001 30.9831 37.3384 30.9831C37.9472 30.9831 38.5191 31.1036 39.054 31.326C43.7028 27.4524 46.4145 21.4288 45.7965 14.9697Z" fill="#4F46E5"/>
<path d="M58.6565 20.0272V11.483H56.0332C55.2102 11.483 54.5244 10.8112 54.5244 9.96712C54.5244 9.14026 55.1931 8.4512 56.0332 8.4512H65.0346C65.8576 8.4512 66.5434 9.12303 66.5434 9.96712C66.5434 10.794 65.8748 11.483 65.0346 11.483H62.4457V20.0272C62.4457 21.0781 61.5884 21.9394 60.5425 21.9394C59.5138 21.9394 58.6565 21.0781 58.6565 20.0272Z" fill="#4F46E5"/>
<path d="M72.184 22.1113C71.3439 22.1113 70.5895 21.939 69.9208 21.6117C69.2521 21.2844 68.7206 20.7504 68.3434 20.0441C67.9662 19.3379 67.7776 18.4249 67.7776 17.3396V13.3431C67.7776 12.3268 68.6006 11.5172 69.595 11.5172C70.6066 11.5172 71.4124 12.344 71.4124 13.3431V16.7539C71.4124 17.5636 71.5668 18.132 71.8582 18.4938C72.1668 18.8383 72.5783 19.0106 73.127 19.0106C73.4871 19.0106 73.8128 18.9244 74.1043 18.7522C74.3958 18.5799 74.6358 18.3215 74.8073 17.9598C74.9787 17.598 75.0816 17.1157 75.0816 16.5472V13.3604C75.0816 12.344 75.9046 11.5344 76.899 11.5344C77.9106 11.5344 78.7164 12.3612 78.7164 13.3604V20.2164C78.7164 21.1811 77.9449 21.9563 76.9847 21.9563C76.0246 21.9563 75.253 21.1811 75.253 20.2164V19.0106L75.9217 19.8374C75.5617 20.6126 75.0473 21.1811 74.3615 21.5601C73.7099 21.9218 72.9727 22.1113 72.184 22.1113Z" fill="#4F46E5"/>
<path d="M81.1003 20.4236V10.3635C81.1003 9.3127 81.9576 8.45139 83.0035 8.45139C84.0494 8.45139 84.9067 9.3127 84.9067 10.3635V18.9077H89.8103C90.6333 18.9077 91.3191 19.5795 91.3191 20.4236C91.3191 21.2505 90.6504 21.9396 89.8103 21.9396H82.6092C81.7862 21.9396 81.1003 21.2677 81.1003 20.4236Z" fill="#FBBF24"/>
<path d="M97.8682 22.1118C96.7366 22.1118 95.725 21.8879 94.8334 21.4228C93.959 20.9577 93.256 20.3203 92.7588 19.5107C92.2616 18.701 92.0044 17.7708 92.0044 16.7028C92.0044 15.652 92.2616 14.7218 92.7588 13.9121C93.256 13.1025 93.959 12.4651 94.8334 12.0172C95.7078 11.5694 96.7194 11.3282 97.8682 11.3282C98.9998 11.3282 100.011 11.5521 100.903 12.0172C101.795 12.4651 102.48 13.1025 102.978 13.9121C103.475 14.7218 103.732 15.652 103.732 16.7028C103.732 17.7536 103.475 18.6838 102.978 19.5107C102.48 20.3203 101.795 20.9577 100.903 21.4228C100.011 21.8707 98.9998 22.1118 97.8682 22.1118ZM97.8682 19.2006C98.2968 19.2006 98.6569 19.0972 98.9826 18.9077C99.3084 18.7183 99.5656 18.4254 99.7542 18.0464C99.9428 17.6674 100.046 17.2196 100.046 16.6856C100.046 16.1515 99.9428 15.7209 99.7542 15.3419C99.5656 14.9629 99.3084 14.7045 98.9826 14.4978C98.6569 14.3083 98.2797 14.205 97.8682 14.205C97.4567 14.205 97.0966 14.3083 96.7709 14.4978C96.4451 14.6873 96.1879 14.9629 95.9822 15.3419C95.7764 15.7037 95.6907 16.1515 95.6907 16.6856C95.6907 17.2196 95.7936 17.6674 95.9822 18.0464C96.1879 18.4254 96.4451 18.7183 96.7709 18.9077C97.0966 19.1145 97.4567 19.2006 97.8682 19.2006Z" fill="#FBBF24"/>
<path d="M105.018 25.8496C104.538 25.8496 104.075 25.798 103.63 25.7118H103.613C102.978 25.574 102.635 24.9022 102.858 24.2821L103.064 23.7136C103.235 23.214 103.733 22.9384 104.247 23.0073C104.35 23.0245 104.436 23.0245 104.538 23.0245C104.864 23.0245 105.121 22.9212 105.31 22.6972C105.516 22.4733 105.601 22.1288 105.601 21.6637V13.3434C105.601 12.327 106.424 11.5174 107.419 11.5174C108.43 11.5174 109.236 12.3443 109.236 13.3434V21.6809C109.236 22.9556 108.859 23.972 108.122 24.7299C107.402 25.4707 106.356 25.8496 105.018 25.8496ZM107.436 10.346C106.767 10.346 106.236 10.1565 105.824 9.79478C105.413 9.4158 105.207 8.96792 105.207 8.41668C105.207 7.86544 105.413 7.40033 105.824 7.03858C106.236 6.6596 106.767 6.48734 107.436 6.48734C108.105 6.48734 108.636 6.65959 109.048 7.02134C109.459 7.36587 109.665 7.83098 109.665 8.38222C109.665 8.96792 109.459 9.43302 109.065 9.812C108.653 10.1565 108.105 10.346 107.436 10.346Z" fill="#FBBF24"/>
<path d="M113.454 10.3462C112.751 10.3462 112.202 10.1394 111.773 9.72601C111.396 9.34703 111.208 8.83025 111.225 8.29623C111.242 7.79667 111.448 7.36601 111.842 7.02149C112.253 6.64251 112.785 6.47025 113.454 6.47025C114.122 6.47025 114.654 6.64251 115.065 7.00427C115.477 7.34879 115.683 7.81389 115.683 8.36513C115.683 8.95083 115.477 9.41594 115.082 9.79492C114.671 10.1567 114.122 10.3462 113.454 10.3462ZM111.619 20.1134V13.3435C111.619 12.3272 112.442 11.5175 113.436 11.5175C114.448 11.5175 115.254 12.3444 115.254 13.3435V20.1134C115.254 21.1298 114.431 21.9394 113.436 21.9394C112.442 21.9394 111.619 21.1126 111.619 20.1134Z" fill="#FBBF24"/>
<path d="M116.574 13.2575C116.574 12.4995 117.192 11.8966 117.929 11.8966H122.73C123.484 11.8966 124.084 12.5167 124.084 13.2575C124.084 14.0154 123.467 14.6183 122.73 14.6183H117.929C117.175 14.6183 116.574 14.0154 116.574 13.2575ZM122.301 22.1118C120.964 22.1118 119.935 21.7845 119.198 21.1126C118.46 20.458 118.083 19.4589 118.083 18.1153V11.0008C118.083 9.98448 118.906 9.17484 119.901 9.17484C120.912 9.17484 121.718 10.0017 121.718 11.0008V18.0808C121.718 18.4598 121.821 18.7526 122.027 18.9593C122.232 19.1661 122.49 19.2694 122.815 19.2694C122.901 19.2694 122.987 19.2694 123.073 19.2522C123.604 19.2005 124.101 19.4761 124.29 19.9757L124.479 20.5097C124.701 21.1299 124.341 21.8017 123.707 21.9395H123.69C123.244 22.0601 122.781 22.1118 122.301 22.1118Z" fill="#FBBF24"/>
<path d="M129.536 22.1118C128.713 22.1118 128.01 21.974 127.427 21.6812C126.844 21.4056 126.415 21.0093 126.107 20.527C125.798 20.0447 125.661 19.4934 125.661 18.8905C125.661 18.2531 125.832 17.7019 126.141 17.2196C126.467 16.7545 126.964 16.3927 127.65 16.1343C128.318 15.8759 129.21 15.7553 130.273 15.7553H132.725V17.6674H130.787C130.204 17.6674 129.793 17.7708 129.553 17.9603C129.313 18.1498 129.193 18.4082 129.193 18.7355C129.193 19.0628 129.313 19.3212 129.553 19.5107C129.793 19.7001 130.136 19.8035 130.547 19.8035C130.942 19.8035 131.302 19.7001 131.628 19.5107C131.953 19.3039 132.193 19.0111 132.348 18.5977L132.845 19.9413C132.656 20.6648 132.279 21.1988 131.73 21.5606C131.182 21.9223 130.444 22.1118 129.536 22.1118ZM132.605 20.9749V19.993L132.348 19.5107V15.9276C132.348 15.3419 132.176 14.9113 131.816 14.584C131.473 14.2739 130.907 14.1188 130.136 14.1188C129.639 14.1188 129.141 14.205 128.627 14.36C128.541 14.3945 128.456 14.4117 128.37 14.4461C127.735 14.6873 127.015 14.3772 126.707 13.7571C126.347 13.0336 126.672 12.155 127.427 11.8794C127.684 11.7933 127.941 11.7072 128.216 11.6383C129.039 11.4315 129.862 11.3282 130.685 11.3282C132.365 11.3282 133.685 11.7244 134.611 12.4996C135.537 13.2748 136 14.4978 136 16.1515V20.9749C136 21.7328 135.382 22.353 134.628 22.353H133.994C133.222 22.353 132.605 21.7328 132.605 20.9749Z" fill="#FBBF24"/>
<path d="M63.8251 33.5341H63.1097L63.9069 29.8207H62.7622L62.9053 29.2218H65.9101L65.7875 29.8207H64.6223L63.8251 33.5341Z" fill="#64748B"/>
<path d="M68.1787 30.2599L67.7904 32.0567C67.729 32.3362 67.6882 32.5159 67.6882 32.6357C67.6882 32.8952 67.8108 33.035 68.0765 33.035C68.2196 33.035 68.3627 32.9751 68.5058 32.8753C68.6489 32.7555 68.7715 32.5958 68.8942 32.3961C68.9964 32.1965 69.0986 31.9369 69.1599 31.6574L69.4665 30.2799H70.1615L69.4461 33.5341H68.8942L68.9555 32.9352H68.935C68.7715 33.1548 68.608 33.3345 68.424 33.4343C68.2401 33.5341 68.0561 33.594 67.8517 33.594C67.5859 33.594 67.3815 33.5141 67.218 33.3744C67.0545 33.2346 66.9932 33.015 66.9932 32.7355C66.9932 32.6157 67.0136 32.4959 67.034 32.3762C67.0545 32.2564 67.0749 32.1366 67.1158 32.0168L67.4633 30.2599H68.1787Z" fill="#64748B"/>
<path d="M75.7417 33.0355C75.8848 33.0355 76.0279 32.9955 76.1914 32.9356V33.4547C76.1301 33.4946 76.0279 33.5146 75.9053 33.5346C75.7826 33.5545 75.66 33.5745 75.5373 33.5745C74.9854 33.5745 74.7197 33.3349 74.7197 32.8558C74.7197 32.736 74.7401 32.6162 74.7606 32.4764L75.1285 30.7994H74.6379L74.6993 30.48L75.2716 30.2404L75.6804 29.5417H76.1301L75.9666 30.2604H76.8047L76.682 30.7795H75.8439L75.476 32.4565C75.4556 32.5563 75.4351 32.6561 75.4351 32.736C75.4351 32.8158 75.4556 32.8957 75.5169 32.9356C75.5782 32.9756 75.6395 33.0355 75.7417 33.0355Z" fill="#64748B"/>
<path d="M78.7264 33.5341H78.011L78.7264 30.2799H79.4418L78.7264 33.5341ZM78.8695 29.4613C78.8695 29.3416 78.9104 29.2218 78.9921 29.1419C79.0739 29.0621 79.1761 29.0221 79.3192 29.0221C79.4214 29.0221 79.5032 29.0421 79.5849 29.102C79.6463 29.1419 79.6871 29.2218 79.6871 29.3416C79.6871 29.4813 79.6463 29.6011 79.5645 29.681C79.4827 29.7608 79.3805 29.8007 79.2374 29.8007C79.1352 29.8007 79.033 29.7808 78.9717 29.7209C78.9104 29.661 78.8695 29.5811 78.8695 29.4613Z" fill="#64748B"/>
<path d="M82.3646 33.5939C81.9762 33.5939 81.6491 33.4941 81.4447 33.2745C81.2199 33.0548 81.1177 32.7554 81.1177 32.3561C81.1177 31.9768 81.1994 31.5974 81.3425 31.278C81.5061 30.9386 81.7105 30.6791 81.9762 30.4994C82.2419 30.3197 82.5485 30.2199 82.8756 30.2199C83.2026 30.2199 83.4479 30.2997 83.6319 30.4395C83.8159 30.5792 83.8976 30.7789 83.8976 31.0384C83.8976 31.3978 83.7341 31.6773 83.3866 31.8769C83.0596 32.0766 82.569 32.1764 81.9558 32.1764H81.8331V32.2762V32.3561C81.8331 32.5757 81.8944 32.7354 81.9966 32.8752C82.0988 33.0149 82.2828 33.0548 82.5077 33.0548C82.6507 33.0548 82.7938 33.0349 82.9369 32.9949C83.08 32.955 83.2435 32.8951 83.4479 32.7953V33.3543C83.264 33.4342 83.08 33.4941 82.9165 33.534C82.7325 33.5739 82.5485 33.5939 82.3646 33.5939ZM82.8143 30.739C82.6303 30.739 82.4463 30.8188 82.2624 30.9985C82.0988 31.1582 81.9762 31.3978 81.8944 31.6773H81.9762C82.3646 31.6773 82.6507 31.6174 82.8551 31.5176C83.0596 31.4178 83.1822 31.258 83.1822 31.0784C83.1822 30.9785 83.1413 30.8987 83.08 30.8388C83.0391 30.7589 82.9369 30.739 82.8143 30.739Z" fill="#64748B"/>
<path d="M87.414 33.534L87.8432 31.5575C87.8841 31.3778 87.9046 31.258 87.9046 31.1782C87.9046 30.9186 87.7819 30.7989 87.5162 30.7989C87.3731 30.7989 87.23 30.8587 87.0869 30.9586C86.9438 31.0784 86.8212 31.2381 86.6986 31.4377C86.5759 31.6573 86.4941 31.8969 86.4533 32.1564L86.1671 33.534H85.4517L86.1671 30.2798H86.719L86.6577 30.8787H86.6781C86.8416 30.6391 87.0256 30.4794 87.1891 30.3796C87.3527 30.2798 87.5571 30.2199 87.7615 30.2199C88.0272 30.2199 88.2316 30.2997 88.3951 30.4395C88.5587 30.5792 88.62 30.7989 88.62 31.0784C88.62 31.2181 88.5995 31.3978 88.5587 31.6174L88.1499 33.534H87.414Z" fill="#64748B"/>
<path d="M92.0533 30.2003C92.4212 30.2003 92.687 30.38 92.8709 30.7194H92.8914C92.9118 30.4399 92.9527 30.1803 92.9936 29.9807L93.2184 28.9425H93.9134L92.9118 33.5344H92.3599L92.4212 33.0153H92.4008C92.2168 33.2149 92.0533 33.3747 91.8898 33.4545C91.7263 33.5344 91.5423 33.5943 91.3583 33.5943C91.0721 33.5943 90.8473 33.4945 90.6838 33.2948C90.5202 33.0952 90.4385 32.8157 90.4385 32.4563C90.4385 32.057 90.5202 31.6777 90.6633 31.3183C90.8064 30.959 90.9904 30.6994 91.2357 30.4998C91.5014 30.3001 91.7671 30.2003 92.0533 30.2003ZM91.6445 33.0353C91.808 33.0353 91.9715 32.9554 92.1351 32.7957C92.2986 32.636 92.4212 32.4164 92.5234 32.1568C92.6256 31.8973 92.6665 31.6377 92.6665 31.3782C92.6665 31.1985 92.6256 31.0588 92.5439 30.939C92.4621 30.8392 92.319 30.7793 92.1351 30.7793C91.9715 30.7793 91.808 30.8591 91.6649 30.9989C91.5218 31.1586 91.3992 31.3582 91.3174 31.6178C91.2357 31.8773 91.1948 32.1568 91.1948 32.4164C91.1743 32.8356 91.3379 33.0353 91.6445 33.0353Z" fill="#64748B"/>
<path d="M96.2235 33.5939C95.9374 33.5939 95.7125 33.4941 95.549 33.2944C95.3855 33.0948 95.3037 32.8153 95.3037 32.4559C95.3037 32.0566 95.365 31.6973 95.5081 31.3379C95.6512 30.9785 95.8352 30.719 96.0805 30.5193C96.3258 30.3197 96.5915 30.2199 96.8981 30.2199C97.1025 30.2199 97.266 30.2598 97.4091 30.3596C97.5522 30.4395 97.6544 30.5792 97.7362 30.7589H97.7566L97.9406 30.2997H98.4925L97.7975 33.534H97.2456L97.3069 33.0149H97.2865C96.9594 33.3942 96.6119 33.5939 96.2235 33.5939ZM96.4893 33.0349C96.6528 33.0349 96.8163 32.955 96.9799 32.8153C97.1434 32.6556 97.266 32.4559 97.3682 32.1964C97.4704 31.9368 97.5318 31.6573 97.5318 31.3579C97.5318 31.1782 97.4909 31.0384 97.3887 30.9386C97.2865 30.8388 97.1638 30.7789 97.0207 30.7789C96.8572 30.7789 96.6937 30.8587 96.5302 30.9985C96.3666 31.1382 96.2644 31.3579 96.1622 31.6174C96.0805 31.8769 96.0191 32.1564 96.0191 32.4359C96.0191 32.6356 96.06 32.7953 96.1418 32.8951C96.2236 32.9949 96.3462 33.0349 96.4893 33.0349Z" fill="#64748B"/>
<path d="M106.975 30.8188C106.975 31.3579 106.873 31.857 106.689 32.2762C106.505 32.6955 106.239 33.0349 105.892 33.2545C105.565 33.4741 105.177 33.5939 104.727 33.5939C104.216 33.5939 103.807 33.4542 103.521 33.1547C103.235 32.8552 103.092 32.4559 103.092 31.9368C103.092 31.4178 103.194 30.9386 103.398 30.4994C103.603 30.0602 103.868 29.7407 104.216 29.5012C104.563 29.2616 104.952 29.1618 105.381 29.1618C105.892 29.1618 106.28 29.3015 106.566 29.601C106.853 29.9005 106.975 30.2998 106.975 30.8188ZM105.32 29.7607C105.033 29.7607 104.788 29.8605 104.563 30.0402C104.338 30.2199 104.154 30.4994 104.032 30.8188C103.909 31.1582 103.848 31.5176 103.848 31.9169C103.848 32.2563 103.93 32.5158 104.093 32.6955C104.257 32.8752 104.482 32.975 104.788 32.975C105.074 32.975 105.32 32.8752 105.544 32.6955C105.769 32.5158 105.933 32.2563 106.055 31.9169C106.178 31.5775 106.239 31.2181 106.239 30.8188C106.239 30.4794 106.158 30.2199 105.994 30.0402C105.831 29.8406 105.606 29.7607 105.32 29.7607Z" fill="#64748B"/>
<path d="M110.511 33.534L110.941 31.5575C110.982 31.3778 111.002 31.258 111.002 31.1782C111.002 30.9186 110.879 30.7989 110.614 30.7989C110.471 30.7989 110.327 30.8587 110.184 30.9586C110.041 31.0784 109.919 31.2381 109.796 31.4377C109.673 31.6573 109.592 31.8969 109.551 32.1564L109.265 33.534H108.549L109.265 30.2798H109.816L109.755 30.8787H109.776C109.939 30.6391 110.123 30.4794 110.287 30.3796C110.45 30.2798 110.654 30.2199 110.859 30.2199C111.125 30.2199 111.329 30.2997 111.493 30.4395C111.636 30.5792 111.717 30.7989 111.717 31.0784C111.717 31.2181 111.697 31.3978 111.656 31.6174L111.247 33.534H110.511Z" fill="#64748B"/>
<path d="M114.13 33.5344H113.414L114.416 28.9425H115.131L114.13 33.5344Z" fill="#64748B"/>
<path d="M117.074 33.5341H116.359L117.074 30.2799H117.79L117.074 33.5341ZM117.217 29.4613C117.217 29.3216 117.258 29.2218 117.34 29.1419C117.422 29.0621 117.524 29.0221 117.667 29.0221C117.769 29.0221 117.851 29.0421 117.933 29.102C117.994 29.1619 118.035 29.2417 118.035 29.3416C118.035 29.4813 117.994 29.6011 117.912 29.681C117.83 29.7608 117.728 29.8007 117.585 29.8007C117.483 29.8007 117.381 29.7808 117.319 29.7209C117.258 29.661 117.217 29.5811 117.217 29.4613Z" fill="#64748B"/>
<path d="M121.285 33.534L121.714 31.5575C121.755 31.3778 121.775 31.258 121.775 31.1782C121.775 30.9186 121.653 30.7989 121.387 30.7989C121.244 30.7989 121.101 30.8587 120.958 30.9586C120.814 31.0784 120.692 31.2381 120.569 31.4377C120.447 31.6573 120.365 31.8969 120.324 32.1564L120.038 33.534H119.322L120.038 30.2798H120.59L120.528 30.8787H120.549C120.712 30.6391 120.896 30.4794 121.06 30.3796C121.223 30.2798 121.428 30.2199 121.632 30.2199C121.898 30.2199 122.102 30.2997 122.266 30.4395C122.409 30.5792 122.491 30.7989 122.491 31.0784C122.491 31.2181 122.47 31.3978 122.429 31.6174L122.02 33.534H121.285Z" fill="#64748B"/>
<path d="M125.577 33.5939C125.189 33.5939 124.862 33.4941 124.657 33.2745C124.453 33.0548 124.33 32.7554 124.33 32.3561C124.33 31.9768 124.412 31.5974 124.555 31.278C124.719 30.9386 124.923 30.6791 125.189 30.4994C125.455 30.3197 125.761 30.2199 126.088 30.2199C126.415 30.2199 126.661 30.2997 126.845 30.4395C127.029 30.5792 127.11 30.7789 127.11 31.0384C127.11 31.3978 126.947 31.6773 126.599 31.8769C126.272 32.0766 125.782 32.1764 125.168 32.1764H125.046V32.2762V32.3561C125.046 32.5757 125.107 32.7354 125.209 32.8752C125.311 33.0149 125.495 33.0548 125.72 33.0548C125.863 33.0548 126.006 33.0349 126.15 32.9949C126.293 32.955 126.456 32.8951 126.661 32.7953V33.3543C126.477 33.4342 126.293 33.4941 126.129 33.534C125.966 33.5739 125.782 33.5939 125.577 33.5939ZM126.047 30.739C125.863 30.739 125.679 30.8188 125.495 30.9985C125.332 31.1582 125.209 31.3978 125.128 31.6773H125.209C125.598 31.6773 125.884 31.6174 126.088 31.5176C126.293 31.4178 126.415 31.258 126.415 31.0784C126.415 30.9785 126.374 30.8987 126.313 30.8388C126.272 30.7589 126.17 30.739 126.047 30.739Z" fill="#64748B"/>
</svg>
